<?xml version="1.0" standalone="yes"?>

<svg version="1.1" viewBox="0.0 0.0 1500.0 200.0" fill="none" stroke="none" stroke-linecap="square" stroke-miterlimit="10" xmlns="http://www.w3.org/2000/svg" xmlns:xlink="http://www.w3.org/1999/xlink"><clipPath id="p.0"><path d="m0 0l1500.0 0l0 200.0l-1500.0 0l0 -200.0z" clip-rule="nonzero"></path></clipPath><g clip-path="url(#p.0)"><path fill="#000000" fill-opacity="0.0" d="m0 0l1500.0 0l0 200.0l-1500.0 0z" fill-rule="evenodd"></path><path fill="#ffffff" d="m15.480317 20.951307l0 0c0 -2.7360725 2.2180262 -4.9540987 4.9540987 -4.9540987l9.300438 0l0 0c1.3139095 0 2.5740032 0.5219469 3.5030766 1.4510221c0.92907333 0.92907333 1.4510231 2.189167 1.4510231 3.5030766l0 158.09741c0 2.7360687 -2.2180252 4.9541016 -4.9540997 4.9541016l-9.300438 0l0 0c-2.7360725 0 -4.9540987 -2.2180328 -4.9540987 -4.9541016z" fill-rule="evenodd"></path><path fill="#ffffff" d="m164.2773 20.951307l0 0c0 -2.7360725 2.2180176 -4.9540987 4.9541016 -4.9540987l9.30043 0l0 0c1.3139038 0 2.5740051 0.5219469 3.5030823 1.4510221c0.92907715 0.92907333 1.4510193 2.189167 1.4510193 3.5030766l0 158.09741c0 2.7360687 -2.2180328 4.9541016 -4.9541016 4.9541016l-9.30043 0l0 0c-2.736084 0 -4.9541016 -2.2180328 -4.9541016 -4.9541016z" fill-rule="evenodd"></path><path fill="#ffffff" d="m178.53183 15.997209l0 0c2.7360687 0 4.9541016 2.2180262 4.9541016 4.9540987l0 9.300438l0 0c0 1.3139095 -0.52194214 2.5740032 -1.4510193 3.5030766c-0.92907715 0.92907333 -2.1891785 1.4510231 -3.5030823 1.4510231l-158.09741 0c-2.7360725 0 -4.9540987 -2.2180252 -4.9540987 -4.9540997l0 -9.300438l0 0c0 -2.7360725 2.2180262 -4.9540987 4.9540987 -4.9540987z" fill-rule="evenodd"></path><path fill="#ffffff" d="m206.31892 184.00282l0 0c-2.7360687 0 -4.9540863 -2.2180328 -4.9540863 -4.9541016l0 -9.30043l0 0c0 -1.3139191 0.52194214 -2.5740051 1.4510193 -3.5030823c0.92907715 -0.92907715 2.1891632 -1.4510193 3.503067 -1.4510193l158.09743 0c2.7360535 0 4.9541016 2.2180176 4.9541016 4.9541016l0 9.30043l0 0c0 2.7360687 -2.218048 4.9541016 -4.9541016 4.9541016z" fill-rule="evenodd"></path><path fill="#ffffff" d="m206.31892 35.205845l0 0c-2.7360687 0 -4.9540863 -2.2180252 -4.9540863 -4.9540997l0 -9.300438l0 0c0 -1.3139095 0.52194214 -2.5740032 1.4510193 -3.5030766c0.92907715 -0.92907524 2.1891632 -1.4510221 3.503067 -1.4510221l158.09743 0c2.7360535 0 4.9541016 2.2180262 4.9541016 4.9540987l0 9.300438l0 0c0 2.7360744 -2.218048 4.9540997 -4.9541016 4.9540997z" fill-rule="evenodd"></path><path fill="#ffffff" d="m201.36484 20.951307l0 0c0 -2.7360725 2.2180176 -4.9540987 4.9540863 -4.9540987l9.300446 0l0 0c1.3139038 0 2.5740051 0.5219469 3.5030823 1.4510221c0.9290619 0.92907333 1.4510193 2.189167 1.4510193 3.5030766l0 158.09741c0 2.7360687 -2.2180328 4.9541016 -4.9541016 4.9541016l-9.300446 0l0 0c-2.7360687 0 -4.9540863 -2.2180328 -4.9540863 -4.9541016z" fill-rule="evenodd"></path><path fill="#ffffff" d="m206.32257 109.60742l0 0c-2.7366333 0 -4.9551086 -2.218483 -4.9551086 -4.955124l0 -9.302353l0 0c0 -1.3141861 0.52204895 -2.5745392 1.4513092 -3.5037994c0.9292755 -0.9292679 2.189621 -1.4513245 3.5037994 -1.4513245l158.08975 0c2.7366638 0 4.955139 2.218483 4.955139 4.955124l0 9.302353l0 0c0 2.736641 -2.2184753 4.955124 -4.955139 4.955124z" fill-rule="evenodd"></path><path fill="#ffffff" d="m387.24936 20.951307l0 0c0 -2.7360725 2.2180176 -4.9540987 4.9541016 -4.9540987l9.300415 0l0 0c1.3139038 0 2.5740051 0.5219469 3.5030823 1.4510221c0.92907715 0.92907333 1.4510193 2.189167 1.4510193 3.5030766l0 158.09741c0 2.7360687 -2.2180176 4.9541016 -4.9541016 4.9541016l-9.300415 0l0 0c-2.736084 0 -4.9541016 -2.2180328 -4.9541016 -4.9541016z" fill-rule="evenodd"></path><path fill="#ffffff" d="m536.0463 20.951307l0 0c0 -2.7360725 2.2180176 -4.9540987 4.9541016 -4.9540987l9.300415 0l0 0c1.3139038 0 2.5740356 0.5219469 3.5031128 1.4510221c0.92907715 0.92907333 1.4509888 2.189167 1.4509888 3.5030766l0 158.09741c0 2.7360687 -2.2180176 4.9541016 -4.9541016 4.9541016l-9.300415 0l0 0c-2.736084 0 -4.9541016 -2.2180328 -4.9541016 -4.9541016z" fill-rule="evenodd"></path><path fill="#ffffff" d="m550.30084 15.997209l0 0c2.736084 0 4.9541016 2.2180262 4.9541016 4.9540987l0 9.300438l0 0c0 1.3139095 -0.5219116 2.5740032 -1.4509888 3.5030766c-0.92907715 0.92907333 -2.189209 1.4510231 -3.5031128 1.4510231l-158.09738 0c-2.736084 0 -4.9541016 -2.2180252 -4.9541016 -4.9540997l0 -9.300438l0 0c0 -2.7360725 2.2180176 -4.9540987 4.9541016 -4.9540987z" fill-rule="evenodd"></path><path fill="#ffffff" d="m550.2946 164.78986l0 0c2.7366333 0 4.955078 2.2184906 4.955078 4.955124l0 9.302353l0 0c0 1.3141785 -0.5220337 2.5745392 -1.451294 3.5037994c-0.92926025 0.9292755 -2.1896362 1.4513245 -3.5037842 1.4513245l-158.08978 0c-2.7366333 0 -4.955139 -2.2184753 -4.955139 -4.955124l0 -9.302353l0 0c0 -2.7366333 2.2185059 -4.955124 4.955139 -4.955124z" fill-rule="evenodd"></path><path fill="#ffffff" d="m573.13385 20.951307l0 0c0 -2.7360725 2.2180176 -4.9540987 4.9541016 -4.9540987l9.300476 0l0 0c1.3139038 0 2.5739746 0.5219469 3.5030518 1.4510221c0.92907715 0.92907333 1.4509888 2.189167 1.4509888 3.5030766l0 158.09741c0 2.7360687 -2.2180176 4.9541016 -4.9540405 4.9541016l-9.300476 0l0 0c-2.736084 0 -4.9541016 -2.2180328 -4.9541016 -4.9541016z" fill-rule="evenodd"></path><path fill="#ffffff" d="m721.93085 20.951307l0 0c0 -2.7360725 2.2180176 -4.9540987 4.9541016 -4.9540987l9.300415 0l0 0c1.3139038 0 2.5740356 0.5219469 3.5031128 1.4510221c0.92907715 0.92907333 1.4509888 2.189167 1.4509888 3.5030766l0 158.09741c0 2.7360687 -2.2180176 4.9541016 -4.9541016 4.9541016l-9.300415 0l0 0c-2.736084 0 -4.9541016 -2.2180328 -4.9541016 -4.9541016z" fill-rule="evenodd"></path><path fill="#ffffff" d="m736.18536 15.997209l0 0c2.736084 0 4.9541016 2.2180262 4.9541016 4.9540987l0 9.300438l0 0c0 1.3139095 -0.5219116 2.5740032 -1.4509888 3.5030766c-0.92907715 0.92907333 -2.189209 1.4510231 -3.5031128 1.4510231l-158.09741 0c-2.736084 0 -4.9541016 -2.2180252 -4.9541016 -4.9540997l0 -9.300438l0 0c0 -2.7360725 2.2180176 -4.9540987 4.9541016 -4.9540987z" fill-rule="evenodd"></path><path fill="#ffffff" d="m763.9725 184.00282l0 0c-2.736084 0 -4.9541016 -2.2180328 -4.9541016 -4.9541016l0 -9.30043l0 0c0 -1.3139191 0.52197266 -2.5740051 1.4510498 -3.5030823c0.92907715 -0.92907715 2.189148 -1.4510193 3.5030518 -1.4510193l158.09741 0c2.736084 0 4.9541016 2.2180176 4.9541016 4.9541016l0 9.30043l0 0c0 2.7360687 -2.2180176 4.9541016 -4.9541016 4.9541016z" fill-rule="evenodd"></path><path fill="#ffffff" d="m763.9725 35.205845l0 0c-2.736084 0 -4.9541016 -2.2180252 -4.9541016 -4.9540997l0 -9.300438l0 0c0 -1.3139095 0.52197266 -2.5740032 1.4510498 -3.5030766c0.92907715 -0.92907524 2.189148 -1.4510221 3.5030518 -1.4510221l158.09741 0c2.736084 0 4.9541016 2.2180262 4.9541016 4.9540987l0 9.300438l0 0c0 2.7360744 -2.2180176 4.9540997 -4.9541016 4.9540997z" fill-rule="evenodd"></path><path fill="#ffffff" d="m759.0184 20.951307l0 0c0 -2.7360725 2.2180176 -4.9540987 4.9541016 -4.9540987l9.300415 0l0 0c1.3139038 0 2.5740356 0.5219469 3.5031128 1.4510221c0.92907715 0.92907333 1.4509888 2.189167 1.4509888 3.5030766l0 158.09741c0 2.7360687 -2.2180176 4.9541016 -4.9541016 4.9541016l-9.300415 0l0 0c-2.736084 0 -4.9541016 -2.2180328 -4.9541016 -4.9541016z" fill-rule="evenodd"></path><path fill="#ffffff" d="m944.9029 20.951307l0 0c0 -2.7360725 2.2180176 -4.9540987 4.9541016 -4.9540987l9.300415 0l0 0c1.3139038 0 2.5740356 0.5219469 3.5031128 1.4510221c0.92907715 0.92907333 1.4509888 2.189167 1.4509888 3.5030766l0 158.09741c0 2.7360687 -2.2180176 4.9541016 -4.9541016 4.9541016l-9.300415 0l0 0c-2.736084 0 -4.9541016 -2.2180328 -4.9541016 -4.9541016z" fill-rule="evenodd"></path><path fill="#ffffff" d="m1093.6998 20.951307l0 0c0 -2.7360725 2.2180176 -4.9540987 4.9541016 -4.9540987l9.300415 0l0 0c1.3139648 0 2.5740967 0.5219469 3.5031738 1.4510221c0.92907715 0.92907333 1.4509277 2.189167 1.4509277 3.5030766l0 158.09741c0 2.7360687 -2.2180176 4.9541016 -4.9541016 4.9541016l-9.300415 0l0 0c-2.736084 0 -4.9541016 -2.2180328 -4.9541016 -4.9541016z" fill-rule="evenodd"></path><path fill="#ffffff" d="m1107.9543 15.997209l0 0c2.736084 0 4.9541016 2.2180262 4.9541016 4.9540987l0 9.300438l0 0c0 1.3139095 -0.5218506 2.5740032 -1.4509277 3.5030766c-0.92907715 0.92907333 -2.189209 1.4510231 -3.5031738 1.4510231l-158.09735 0c-2.736084 0 -4.9541016 -2.2180252 -4.9541016 -4.9540997l0 -9.300438l0 0c0 -2.7360725 2.2180176 -4.9540987 4.9541016 -4.9540987z" fill-rule="evenodd"></path><path fill="#ffffff" d="m1107.9481 164.78986l0 0c2.7366943 0 4.955078 2.2184906 4.955078 4.955124l0 9.302353l0 0c0 1.3141785 -0.52197266 2.5745392 -1.451294 3.5037994c-0.9291992 0.9292755 -2.1895752 1.4513245 -3.5037842 1.4513245l-158.08972 0c-2.7366333 0 -4.955139 -2.2184753 -4.955139 -4.955124l0 -9.302353l0 0c0 -2.7366333 2.2185059 -4.955124 4.955139 -4.955124z" fill-rule="evenodd"></path><path fill="#ffffff" d="m1135.7415 35.205845l0 0c-2.736084 0 -4.9541016 -2.2180252 -4.9541016 -4.9540997l0 -9.300438l0 0c0 -1.3139095 0.52197266 -2.5740032 1.4510498 -3.5030766c0.92907715 -0.92907524 2.189209 -1.4510221 3.5030518 -1.4510221l158.09741 0c2.736084 0 4.9541016 2.2180262 4.9541016 4.9540987l0 9.300438l0 0c0 2.7360744 -2.2180176 4.9540997 -4.9541016 4.9540997z" fill-rule="evenodd"></path><path fill="#ffffff" d="m1130.7874 20.951307l0 0c0 -2.7360725 2.2180176 -4.9540987 4.9541016 -4.9540987l9.300537 0l0 0c1.3138428 0 2.5739746 0.5219469 3.5030518 1.4510221c0.92907715 0.92907333 1.4510498 2.189167 1.4510498 3.5030766l0 158.09741c0 2.7360687 -2.2181396 4.9541016 -4.9541016 4.9541016l-9.300537 0l0 0c-2.736084 0 -4.9541016 -2.2180328 -4.9541016 -4.9541016z" fill-rule="evenodd"></path><path fill="#ffffff" d="m1135.7451 109.60742l0 0c-2.7365723 0 -4.955078 -2.218483 -4.955078 -4.955124l0 -9.302353l0 0c0 -1.3141861 0.5220947 -2.5745392 1.451294 -3.5037994c0.9293213 -0.9292679 2.1896973 -1.4513245 3.5037842 -1.4513245l158.08984 0c2.7365723 0 4.955078 2.218483 4.955078 4.955124l0 9.302353l0 0c0 2.736641 -2.2185059 4.955124 -4.955078 4.955124z" fill-rule="evenodd"></path><path fill="#ffffff" d="m1279.5801 20.955048l0 0c0 -2.736639 2.2185059 -4.955122 4.955078 -4.955122l9.302368 0l0 0c1.314209 0 2.574585 0.5220566 3.5037842 1.4513206c0.9293213 0.929266 1.451294 2.189621 1.451294 3.5038013l0 83.538574c0 2.736641 -2.2183838 4.955124 -4.955078 4.955124l-9.302368 0l0 0c-2.7365723 0 -4.955078 -2.218483 -4.955078 -4.955124z" fill-rule="evenodd"></path><path fill="#ffffff" d="m1235.0598 110.52145l0 0c-1.4871826 -2.2955322 -0.8306885 -5.3602295 1.4663086 -6.845192l7.8078613 -5.0476685l0 0c1.1030273 -0.71310425 2.44458 -0.9590988 3.7296143 -0.68385315c1.2849121 0.27523804 2.408081 1.0491638 3.1221924 2.1515121l44.913574 69.32494c1.4873047 2.2955322 0.83081055 5.3602295 -1.4661865 6.8451843l-7.8078613 5.0476837l0 0c-2.296997 1.4849548 -5.364624 0.8278656 -6.8519287 -1.4676666z" fill-rule="evenodd"></path><path fill="#ffffff" d="m1321.626 184.00282l0 0c-2.736084 0 -4.9541016 -2.2180328 -4.9541016 -4.9541016l0 -9.30043l0 0c0 -1.3139191 0.52197266 -2.5740051 1.4510498 -3.5030823c0.92907715 -0.92907715 2.189209 -1.4510193 3.5030518 -1.4510193l158.09741 0c2.736084 0 4.9541016 2.2180176 4.9541016 4.9541016l0 9.30043l0 0c0 2.7360687 -2.2180176 4.9541016 -4.9541016 4.9541016z" fill-rule="evenodd"></path><path fill="#ffffff" d="m1321.626 35.205845l0 0c-2.736084 0 -4.9541016 -2.2180252 -4.9541016 -4.9540997l0 -9.300438l0 0c0 -1.3139095 0.52197266 -2.5740032 1.4510498 -3.5030766c0.92907715 -0.92907524 2.189209 -1.4510221 3.5030518 -1.4510221l158.09741 0c2.736084 0 4.9541016 2.2180262 4.9541016 4.9540987l0 9.300438l0 0c0 2.7360744 -2.2180176 4.9540997 -4.9541016 4.9540997z" fill-rule="evenodd"></path><path fill="#ffffff" d="m1316.6719 20.951307l0 0c0 -2.7360725 2.2180176 -4.9540987 4.9541016 -4.9540987l9.300537 0l0 0c1.3138428 0 2.5739746 0.5219469 3.5030518 1.4510221c0.92907715 0.92907333 1.4510498 2.189167 1.4510498 3.5030766l0 158.09741c0 2.7360687 -2.2181396 4.9541016 -4.9541016 4.9541016l-9.300537 0l0 0c-2.736084 0 -4.9541016 -2.2180328 -4.9541016 -4.9541016z" fill-rule="evenodd"></path><path fill="#ffffff" d="m1321.6296 109.60742l0 0c-2.7365723 0 -4.955078 -2.218483 -4.955078 -4.955124l0 -9.302353l0 0c0 -1.3141861 0.5220947 -2.5745392 1.451294 -3.5037994c0.9293213 -0.9292679 2.1895752 -1.4513245 3.5037842 -1.4513245l158.08984 0c2.7365723 0 4.955078 2.218483 4.955078 4.955124l0 9.302353l0 0c0 2.736641 -2.2185059 4.955124 -4.955078 4.955124z" fill-rule="evenodd"></path></g></svg>

